screens;
 
http://imgcum.com/img-5086f4b96218c.html
 
http://imgcum.com/img-5086f4d1e4fcb.html

Video
ID                                       : 2
Format                                   : VC-1
Format profile                           : MP@HL
Codec ID                                 : WMV3
Codec ID/Info                            : Windows Media Video 9
Codec ID/Hint                            : WMV3
Description of the codec                 : Windows Media Video 9 - Professional
Duration                                 : 24mn 45s
Bit rate mode                            : Variable
Bit rate                                 : 5 779 Kbps
Width                                    : 1 920 pixels
Height                                   : 1 080 pixels
Display aspect ratio                     : 16:9
Frame rate                               : 25.000 fps
Bit depth                                : 8 bits
Scan type                                : Progressive
Compression mode                         : Lossy
Bits/(Pixel*Frame)                       : 0.111
Stream size                              : 1 024 MiB (96%)
Language                                 : Russian

Audio
ID                                       : 1
Format                                   : WMA
Format version                           : Version 2
Codec ID                                 : 161
Codec ID/Info                            : Windows Media Audio
Description of the codec                 : Windows Media Audio 9.2 - 192 kbps, 44 kHz, stereo (A/V) 1-pass CBR
Duration                                 : 24mn 45s
Bit rate mode                            : Constant
Bit rate                                 : 192 Kbps
Channel(s)                               : 2 channels
Sampling rate                            : 44.1 KHz
Bit depth                                : 16 bits
Stream size                              : 34.0 MiB (3%)
Language                                 : Russian